<?xml version="1.0"?>
<!DOCTYPE svg PUBLIC "-//W3C//DTD SVG 1.1//EN" 
"http://www.w3.org/Graphics/SVG/1.1/DTD/svg11.dtd">
<svg xmlns="http://www.w3.org/2000/svg" xmlns:xlink="http://www.w3.org/1999/xlink" xml:space="preserve" height="5in" width="5in" viewBox="0 0 200 265">
<rect x="0" y="0" width="200" height="265" style="fill: white;" />
<!--red data: 1 (of 15) 0 to 24 degrees in red-->
<path d="M 100,97 L 189,97 A 90,90 0 0 1 182,133 Z" style="fill:red; stroke: black; stroke-width: 1;" />
<!--green data: 2 (of 15) 24 to 72 degrees in green-->
<path d="M 100,97 L 182,133 A 90,90 0 0 1 127,182 Z" style="fill:green; stroke: black; stroke-width: 1;" />
<!--blue data: 3 (of 15) 72 to 144 degrees in blue-->
<path d="M 100,97 L 127,182 A 90,90 0 0 1 27,149 Z" style="fill:blue; stroke: black; stroke-width: 1;" />
<!--black data: 4 (of 15) 144 to 240 degrees in black-->
<path d="M 100,97 L 27,149 A 90,90 0 0 1 55,19 Z" style="fill:black; stroke: black; stroke-width: 1;" />
<!--gold data: 5 (of 15) 240 to 360 degrees in gold-->
<path d="M 100,97 L 55,19 A 90,90 0 0 1 189,97 Z" style="fill:gold; stroke: black; stroke-width: 1;" />

<rect x="10" y="210" width="20" height="8" rx="0" style="fill:red; stroke:black; stroke-width:1;" />
<text x="40" y="218" fill="black" font-size="8" font-family="Arial">red data: 6.67%</text>
<rect x="10" y="220" width="20" height="8" rx="0" style="fill:green; stroke:black; stroke-width:1;" />
<text x="40" y="228" fill="black" font-size="8" font-family="Arial">green data: 13.33%</text>
<rect x="10" y="230" width="20" height="8" rx="0" style="fill:blue; stroke:black; stroke-width:1;" />
<text x="40" y="238" fill="black" font-size="8" font-family="Arial">blue data: 20.00%</text>
<rect x="10" y="240" width="20" height="8" rx="0" style="fill:black; stroke:black; stroke-width:1;" />
<text x="40" y="248" fill="black" font-size="8" font-family="Arial">black data: 26.67%</text>
<rect x="10" y="250" width="20" height="8" rx="0" style="fill:gold; stroke:black; stroke-width:1;" />
<text x="40" y="258" fill="black" font-size="8" font-family="Arial">gold data: 33.33%</text>

</svg>
